<?xml version="1.0" encoding="UTF-8"?><svg id="Layer_3" xmlns="http://www.w3.org/2000/svg" width="240" height="240" viewBox="0 0 240 240"><defs><style>.cls-1{fill:#2b2b2d;}.cls-2{fill:#fff;}.cls-3,.cls-4,.cls-5{stroke:#000;stroke-miterlimit:10;}.cls-4,.cls-6,.cls-5{fill:none;}.cls-4,.cls-5{stroke-width:3px;}.cls-7{fill:#312444;}.cls-8{fill:#cbc5d3;}.cls-9{fill:#42305e;}.cls-5{stroke-linecap:round;}.cls-10{fill:#62626b;}.cls-11{fill:#bf5a75;}</style></defs><g><g><g><polygon class="cls-7" points="52.03 158 170.03 165 170.03 15 52.03 19 52.03 158"/><path d="M170.03,166.5s-.06,0-.09,0l-118-7c-.79-.05-1.41-.7-1.41-1.5V19c0-.81,.64-1.47,1.45-1.5l118-4c.41-.02,.8,.14,1.09,.42,.29,.28,.46,.67,.46,1.08V165c0,.41-.17,.81-.47,1.09-.28,.26-.65,.41-1.03,.41Zm-116.5-9.91l115,6.82V16.55l-115,3.9V156.59Z"/></g><path class="cls-8" d="M184.53,27.03l.02,7.47-118.87-.45c-2.98-.01-12.05-4.57-12.16-7.55v-4l121.73-3.34,9.27,7.87Z"/><path class="cls-5" d="M136.69,178.16s-.06,44.34,6.39,46.84"/><path class="cls-5" d="M114.08,177.16s.06,44.34-6.39,46.84"/><path class="cls-5" d="M187.53,156.77s22.72,.06,24-6.39"/><path class="cls-5" d="M60.53,150.77s-30.35,.06-32.06-6.39"/><g><polygon class="cls-7" points="70.03 173 188.03 180 188.03 30 70.03 34 70.03 173"/><path d="M188.03,181.5s-.06,0-.09,0l-118-7c-.79-.05-1.41-.7-1.41-1.5V34c0-.81,.64-1.47,1.45-1.5l118-4c.41-.02,.8,.14,1.09,.42,.29,.28,.46,.67,.46,1.08V180c0,.41-.17,.81-.47,1.09-.28,.26-.65,.41-1.03,.41Zm-116.5-9.91l115,6.82V31.55l-115,3.9V171.59Z"/></g><path class="cls-4" d="M52.03,158s-6.5,9.5,18,15"/><path class="cls-4" d="M52.03,19s-6.5,9.5,18,15"/><path class="cls-7" d="M53.53,156.5s-.7,3.29-.86,3.8c-.36,1.18-.32,3.52,3.86,6.17,2.36,1.5,6.64,3.51,12,5.03v-14.11l-15-.89Z"/><line class="cls-6" x1="174.53" y1="21.5" x2="57.53" y2="24.5"/><line class="cls-1" x1="177.53" y1="21.5" x2="54.53" y2="25.5"/><line class="cls-1" x1="53.53" y1="24.5" x2="175.53" y2="20.5"/><line class="cls-1" x1="53.53" y1="23.5" x2="174.53" y2="19.5"/><line class="cls-1" x1="178.53" y1="22.5" x2="55.53" y2="26.5"/><line class="cls-1" x1="179.53" y1="23.5" x2="56.53" y2="27.5"/><line class="cls-1" x1="180.53" y1="24.5" x2="58.53" y2="28.5"/><line class="cls-1" x1="181.53" y1="25.5" x2="60.53" y2="29.5"/><line class="cls-1" x1="182.53" y1="26.5" x2="62.53" y2="30.5"/><line class="cls-1" x1="183.53" y1="27.5" x2="65.53" y2="31.5"/><g><circle class="cls-3" cx="149.03" cy="129" r="14"/><path class="cls-2" d="M142.06,137.34c1.93,0,1.93-3,0-3s-1.93,3,0,3h0Z"/><path class="cls-2" d="M152.76,131.53c2.35,0,4.61-2.07,4.5-4.5s-1.98-4.5-4.5-4.5c-2.35,0-4.61,2.07-4.5,4.5s1.98,4.5,4.5,4.5h0Z"/></g><g><circle class="cls-3" cx="106.03" cy="128" r="14"/><path class="cls-2" d="M99.06,136.34c1.93,0,1.93-3,0-3s-1.93,3,0,3h0Z"/><path class="cls-2" d="M109.76,130.53c2.35,0,4.61-2.07,4.5-4.5s-1.98-4.5-4.5-4.5c-2.35,0-4.61,2.07-4.5,4.5s1.98,4.5,4.5,4.5h0Z"/></g><g><path class="cls-10" d="M116.03,144.96s10.17,6.64,27.06,1.03c0,0-6.19,25.82-16.6,25.42-3.31-.13-5.57-2.84-7.11-6.48-3.32-7.83-3.35-19.96-3.35-19.96Z"/><g><path class="cls-11" d="M119.43,164.8c4.96-5.9,10.69-5.35,15.53,.76,.11,.13-1.39,2.41-3.71,4.09-1.34,.98-2.94,1.75-4.63,1.69-5.56-.21-7.2-6.53-7.2-6.53Z"/><path class="cls-11" d="M126.62,171.42c-5.56-.21-7.26-6.53-7.27-6.6v-.04s.02-.03,.02-.03c2.35-2.8,4.89-4.2,7.54-4.17,2.79,.04,5.6,1.74,8.12,4.93,.02,.02,.03,.06,.02,.1-.05,.33-1.5,2.48-3.75,4.11-1.63,1.19-3.21,1.76-4.68,1.7Zm-7.1-6.6c.16,.55,1.91,6.23,7.11,6.43,1.44,.05,2.98-.51,4.58-1.67,2.22-1.62,3.62-3.71,3.68-3.99-2.49-3.13-5.25-4.8-7.98-4.84-2.59-.04-5.07,1.33-7.38,4.07Z"/></g></g></g><path class="cls-9" d="M181.53,83.5s4-35,0-48c0,0-26,0-39,2,23,5,38,15,39,46Z"/></g><circle class="cls-11" cx="88.78" cy="141.75" r="3.75"/><circle class="cls-11" cx="164.78" cy="141.75" r="3.75"/></svg>