<?xml version="1.0" encoding="UTF-8"?><svg id="Layer_3" xmlns="http://www.w3.org/2000/svg" width="240" height="240" viewBox="0 0 240 240"><defs><style>.cls-1{fill:#fff;}.cls-2{fill:#f24405;stroke-width:.5px;}.cls-2,.cls-3,.cls-4{stroke:#000;}.cls-2,.cls-4{stroke-linecap:round;stroke-linejoin:round;}.cls-5{fill:#f2cb05;}.cls-3{stroke-miterlimit:10;}.cls-3,.cls-4{fill:none;stroke-width:.25px;}</style></defs><g><path class="cls-5" d="M126.91,51.33l52.96-31.88s8.67,53.1,8.67,54.23c0,.82,50.69,13.46,50.69,13.46l-49.99,47.91,8.33,62.49-62.17-26.7-26.12,49.72-29.1-36.98-45.69,28.04,6.49-51.2L.77,164.14l25.61-27.57L2.47,100.24l35.8-8.41-6.72-43.19,39,16.01,17.99-39.76,38.36,26.45Z"/><polygon class="cls-2" points="79.41 81.69 94.08 35.62 129.74 75.12 167.9 38.71 177.31 81.35 214.92 92.01 174.48 130.05 185.27 182.71 130.87 154.41 106.68 205.56 77.07 167.43 43.97 195.97 51.27 154.6 10.18 160.03 36.86 136.28 13.76 106.41 46.78 102.87 38.2 57.92 79.41 81.69"/></g><polyline class="cls-4" points="64.05 119.36 50.64 138.14 71.4 141.64"/><polyline class="cls-4" points="89.73 97.37 98.22 77.25 117.45 83.96"/><polyline class="cls-3" points="156.35 112.13 168.87 123.75 145.17 136.72"/><polyline class="cls-3" points="142.04 90.67 152.83 69.35 165.79 93.04"/><polyline class="cls-4" points="123.27 159.51 108.5 144.96 88.58 152.14"/><g><path d="M128.82,122.16l-19.96,5.35c-.15,.33-.28,.67-.4,1.02-2.39,6.92,1.29,14.46,8.21,16.85,6.92,2.39,14.46-1.29,16.85-8.21,1.94-5.63-.13-11.67-4.69-15.01Zm-10.03,15.67c-.78,2.26-3.2,3.29-5.42,2.64-2.21-.65-3.36-3.31-2.64-5.42,.78-2.26,3.2-3.29,5.42-2.64,2.21,.65,3.36,3.31,2.64,5.42Zm8.5-7.78c-.6,1.73-3.28,.8-2.68-.93,.6-1.73,3.28-.8,2.68,.93Z"/><path class="cls-1" d="M124.61,129.13c.6-1.73,3.28-.8,2.68,.93-.6,1.73-3.28,.8-2.68-.93Z"/><path class="cls-1" d="M113.38,140.47c-2.21-.65-3.36-3.31-2.64-5.42,.78-2.26,3.2-3.29,5.42-2.64,2.21,.65,3.36,3.31,2.64,5.42-.78,2.26-3.2,3.29-5.42,2.64Z"/></g><g><path d="M80.76,137.17c2.39,6.92,9.93,10.59,16.85,8.21s10.59-9.93,8.21-16.85c-.12-.35-.26-.69-.4-1.02l-19.96-5.35c-4.56,3.34-6.63,9.38-4.69,15.01Zm17.36-4.75c2.22-.65,4.64,.38,5.42,2.64,.73,2.11-.43,4.76-2.64,5.42-2.22,.65-4.64-.38-5.42-2.64-.73-2.11,.43-4.76,2.64-5.42Zm-8.46-3.29c.6,1.73-2.09,2.66-2.68,.93-.6-1.73,2.09-2.66,2.68-.93Z"/><path class="cls-1" d="M89.66,129.13c-.6-1.73-3.28-.8-2.68,.93,.6,1.73,3.28,.8,2.68-.93Z"/><path class="cls-1" d="M100.9,140.47c2.21-.65,3.36-3.31,2.64-5.42-.78-2.26-3.2-3.29-5.42-2.64-2.21,.65-3.36,3.31-2.64,5.42,.78,2.26,3.2,3.29,5.42,2.64Z"/></g></svg>