<svg xmlns="http://www.w3.org/2000/svg" width="256" height="256" viewBox="0 0 100 100"><rect width="100" height="100" rx="50" fill="#000000"></rect><path fill="#ffffff" d="M41.37 66.24L39.52 74.99L11.60 74.99L22.16 25.01L50.12 25.01L48.27 33.70L30.77 33.70L28.48 44.67L44.79 44.67L42.91 53.35L26.60 53.35L23.87 66.24L41.37 66.24ZM68.71 33.70L65.57 48.53L67.48 48.53Q72.34 48.53 75.12 46.17Q77.91 43.81 77.91 39.85L77.91 39.85Q77.91 33.70 71.24 33.70L71.24 33.70L68.71 33.70ZM88.40 39.58L88.40 39.58Q88.40 47.81 82.61 52.51Q76.81 57.21 66.63 57.21L66.63 57.21L63.69 57.21L59.96 74.99L49.54 74.99L60.10 25.01L71.65 25.01Q79.92 25.01 84.16 28.65Q88.40 32.29 88.40 39.58Z"></path></svg>