<?xml version="1.0" encoding="UTF-8"?><svg id="Layer_3" xmlns="http://www.w3.org/2000/svg" width="240" height="240" viewBox="0 0 240 240"><defs><style>.cls-1{fill:#fff;}.cls-2,.cls-3,.cls-4,.cls-5,.cls-6{stroke:#000;}.cls-2,.cls-3,.cls-5,.cls-6{stroke-miterlimit:10;}.cls-2,.cls-4{fill:#f2eb70;}.cls-2,.cls-4,.cls-6{stroke-width:3px;}.cls-7{fill:#f2cb05;}.cls-4{stroke-linejoin:round;}.cls-8{fill:#f2cb43;}.cls-5{fill:#787b7f;stroke-width:2px;}.cls-6{fill:none;stroke-linecap:round;}</style></defs><path class="cls-6" d="M148.65,184.49s20.16-.06,21.3,6.17"/><path class="cls-6" d="M92.73,185.46s-23.76-.06-25.1,6.17"/><g><g><path class="cls-5" d="M108.66,233.38s3.86,4.79,11.58,4.79,11.32-4.79,11.32-4.79"/><g><path class="cls-5" d="M132.36,233.83h-24.98c-1.48,0-2.73-1.09-2.93-2.55l-4.11-29.6c-.19-1.37,.87-2.59,2.26-2.59h33.78c1.68,0,2.97,1.48,2.74,3.14l-4.07,29.27c-.19,1.34-1.33,2.34-2.68,2.34Z"/><line class="cls-5" x1="101.42" y1="206.8" x2="138.54" y2="206.8"/><line class="cls-5" x1="101.42" y1="213.56" x2="138.1" y2="213.56"/><line class="cls-5" x1="103.35" y1="227.07" x2="136.17" y2="227.07"/><line class="cls-5" x1="102.38" y1="220.31" x2="136.17" y2="220.31"/><path class="cls-2" d="M192.15,100.15c0,27.34-17.34,50.89-42.29,61.52-3.42,1.46-.91,37.57-10.19,37.89-7.48,.26-32.19,.48-39.35,0-7.58-.5-8.11-36.97-11.11-38.29-24.45-10.82-41.37-34.12-41.37-61.12,0-37.32,32.3-67.56,72.15-67.56s72.15,30.25,72.15,67.56Z"/></g><g><circle class="cls-3" cx="95.15" cy="138.75" r="13.51"/><path class="cls-1" d="M101.88,146.86c1.93,0,1.93-3,0-3s-1.93,3,0,3h0Z"/><path class="cls-1" d="M91.54,141.35c2.35,0,4.61-2.07,4.5-4.5s-1.98-4.5-4.5-4.5c-2.35,0-4.61,2.07-4.5,4.5s1.98,4.5,4.5,4.5h0Z"/></g><g><circle class="cls-3" cx="128.93" cy="138.75" r="13.51"/><path class="cls-1" d="M135.66,146.86c1.93,0,1.93-3,0-3s-1.93,3,0,3h0Z"/><path class="cls-1" d="M125.33,141.35c2.35,0,4.61-2.07,4.5-4.5s-1.98-4.5-4.5-4.5c-2.35,0-4.61,2.07-4.5,4.5s1.98,4.5,4.5,4.5h0Z"/></g><path class="cls-8" d="M121.84,38.85s29.96-3.84,47.75,18.22c17.79,22.06,16.77,36.8,16.77,36.8,0,0-2.65,29.58-3.15,15.57-.51-14.01-20.01-27.15-24.84-44.53-6.98-25.13-27.26-6.94-31.85-10.62-10.12-8.1-6.53,11.85-9.65,13.51-14.48,7.72-35.25-1.81-27.8-15.53,9.36-17.26,32.77-13.43,32.77-13.43Z"/><path d="M115.64,189.43c6.52,0,9.18-10.5,9.68-16.05,.13-1.47-.29-2.91-.95-3.2-.65-.3-1.29,.65-1.42,2.12-.05,.5-1.18,11.69-7.31,11.69-6.18,0-7.54-11.08-7.59-11.55-.17-1.45-.83-2.32-1.47-1.95-.64,.37-1.04,1.84-.87,3.29,.6,5.42,3.45,15.66,9.94,15.66Z"/><path class="cls-7" d="M140.03,189.43c.97,6.76-12.55,6.76-12.55,6.76,0,0,9.65,.97,12.55,0s4.34-20.14,3.86-21.23l-3.86,14.48Z"/></g><path class="cls-4" d="M115.43,28.71c-5.35-1.15-9.69-7.53-10.56-12.14-1.54-8.06,2.3-14.16,3.77-13.36,1.01,.55-1.71,4.53,.22,8.65,1.79,3.82,5.13,8.37,6.56,7.21,1.46-1.18-.23-7.26,1.4-11.05,2.02-4.71,10.08-5.89,10.17-5.67,.04,.09-1.2,.29-2.15,1.33-3.36,3.65-3.37,14.6-1.7,14.42,.76-.08,4.27-3.18,5.95-5.4,3.13-4.15,10.34-4.12,10.49-3.61,.06,.22-1.23,.36-2.15,1.33-1.42,1.47-12.28,12.07-10.82,18.3h-11.17Z"/></g></svg>