<?xml version="1.0" encoding="UTF-8"?><svg id="Layer_3" xmlns="http://www.w3.org/2000/svg" width="240" height="240" viewBox="0 0 240 240"><defs><style>.cls-1{fill:#fff;}.cls-2{fill:#421908;}.cls-3,.cls-4,.cls-5{stroke:#000;stroke-miterlimit:10;}.cls-4,.cls-6{fill:#ccc476;}.cls-4,.cls-5{stroke-width:3px;}.cls-7{fill:#91873d;}.cls-8{fill:#5b1e00;}.cls-5{fill:none;stroke-linecap:round;}.cls-9{fill:#bf5a75;}</style></defs><path class="cls-5" d="M101.86,195.33s-.06,22.09,6.39,23.34"/><path class="cls-5" d="M71.86,190.67s-.06,24.61,6.39,26"/><path class="cls-5" d="M25.05,163.48s-20.47-2.76-21.86,3.69"/><path class="cls-5" d="M176.84,169.2s22.15,1.38,22.36,7.97"/><g><g><path class="cls-4" d="M205.83,148.35c-3.09,0-5.42-1.11-6.99-2.25-9.53-6.92-15.67-26.55-15.66-28.88l6.01-1.21,2.26-30.13c.24-3.19-1.63-6.16,.26-8.6,6.16-7.95,16.86-11.33,24.67-9.53,16.77,3.87,21.4,11.85,20.27,17.51-1.16,5.8-5.49,10.05-10.07,14.54-4.37,4.29-8.89,8.73-11.04,14.86-1.03,2.94,0,7.55,1.01,12.01,1.67,7.41,3.95,17.56-5.89,20.84-1.77,.59-3.38,.83-4.82,.83Zm-16.65-31c-.01,5.56,7.24,19.58,13.18,23.89,1.1,.8,2.96,1.73,6.39,.58,4.02-1.34,4-4.63,1.93-13.83-1.19-5.28-2.42-10.75-.82-15.31,2.61-7.45,7.87-12.61,12.5-17.16,4.07-4,7.59-7.45,8.39-11.44,.54-2.72-3.98-7.78-15.73-10.49-6.91-1.59-15.29,3.12-18.57,7.36-1.17,1.51-2.1,3.21-2.25,5.21l-5.02,31.18Z"/><g><g><path class="cls-6" d="M196.03,56.33s-8.18,104.87-21.75,115.73c-47.5,37.32-125.54,17.64-142.95,0C22.96,166.63,6.84,56.28,6.84,56.28"/><path d="M105.13,196.67c-5.22,0-9.93-.26-13.91-.62-26.23-2.34-51.65-11.1-62.05-21.35-2.33-1.61-6.62-6.56-16.57-61.97C7.58,84.74,3.53,57.05,3.49,56.77c-.27-1.85,1.01-3.58,2.87-3.85,1.86-.27,3.58,1.01,3.85,2.87,.04,.27,3.95,27,8.85,54.42,8.91,49.89,13.11,57.83,14.25,59.08l.2,.13,.26,.26c7.76,7.87,30.21,17.13,58.07,19.62,18.46,1.64,53.45,1.24,80.36-19.9,2.21-1.77,8.11-11.16,14.69-59.7,3.69-27.17,5.75-53.37,5.77-53.63,.15-1.87,1.77-3.27,3.65-3.12,1.87,.15,3.26,1.78,3.12,3.65-.02,.26-2.1,26.63-5.81,53.98-6.87,50.64-13.11,60.85-17.21,64.13-22.89,17.98-50.95,21.96-71.27,21.96Z"/></g><g><path class="cls-6" d="M7.51,54.15c10.51-8.7,85.47-65.13,189.07,.17,.72,.45,.78,1.48,.12,2.02-11.61,9.38-97.88,73.96-189.19-.05-.67-.55-.68-1.58-.01-2.13Z"/><path d="M99.81,94.77c-8.93,0-17.78-.87-26.5-2.61-23.68-4.72-46.53-15.9-67.92-33.24-1.11-.9-1.76-2.25-1.77-3.68,0-1.44,.62-2.78,1.73-3.7h0c5.86-4.85,27.6-21.23,61.08-28.37,19.21-4.09,39.05-4.43,58.96-.99,24.27,4.19,48.84,14.04,73.01,29.27,1.26,.8,2.07,2.16,2.16,3.65,.09,1.49-.55,2.94-1.71,3.87-6.72,5.43-31.33,23.78-66.06,31.91-11.05,2.59-22.07,3.88-32.97,3.88ZM11.62,55.21c37,29.22,77.23,38.99,119.61,29.07,30.04-7.04,52.17-22.01,60.95-28.7-41.96-25.74-83.77-34.41-124.33-25.77-29,6.18-48.67,19.54-56.23,25.41Zm-1.94,1.55h0s0,0,0,0h0Z"/></g><path class="cls-2" d="M176.32,54.06c-76.92-43.93-141.29-5.29-150.25,.57-.53,.35-.56,1.12-.05,1.5,55.2,42.18,138.33,9.37,150.46-.02,.7-.54,.61-1.62-.15-2.06Z"/></g><path class="cls-8" d="M112.65,37.58s-26.92,1.29-28.63,6.07-10.73,8.23-21.44,10.6c-9.53,2.11-22.15,.73-23.14-.31-2.09-2.2,46.72-19,73.21-16.36Z"/><g><circle class="cls-3" cx="102.36" cy="160.4" r="14"/><path class="cls-1" d="M111.32,165.79c1.93,0,1.93-3,0-3s-1.93,3,0,3h0Z"/><path class="cls-1" d="M95.23,162.31c2.35,0,4.61-2.07,4.5-4.5s-1.98-4.5-4.5-4.5c-2.35,0-4.61,2.07-4.5,4.5s1.98,4.5,4.5,4.5h0Z"/></g><g><circle class="cls-3" cx="62.24" cy="156.24" r="14"/><path class="cls-1" d="M52.6,159.29c1.93,0,1.93-3,0-3s-1.93,3,0,3h0Z"/><path class="cls-1" d="M69.79,160c2.35,0,4.61-2.07,4.5-4.5s-1.98-4.5-4.5-4.5c-2.35,0-4.61,2.07-4.5,4.5s1.98,4.5,4.5,4.5h0Z"/></g><ellipse class="cls-3" cx="80.94" cy="179.06" rx="4.41" ry="13.23" transform="translate(-104.8 243.19) rotate(-84.72)"/><circle class="cls-9" cx="119.2" cy="174.17" r="4.5"/><circle class="cls-9" cx="42.2" cy="166.17" r="4.5"/></g><path class="cls-7" d="M177.7,119.67c1-6,.72,36.28-7.12,47.17,0,0-9.88,10.83-34.88,13.83,13.03-5.92,23.55-11.8,29-21,8.36-14.09,11.67-32.05,13-40Z"/></g></svg>