<?xml version="1.0" encoding="UTF-8"?><svg id="Layer_3" xmlns="http://www.w3.org/2000/svg" width="240" height="240" viewBox="0 0 240 240"><defs><style>.cls-1{fill:#fff;}.cls-2{fill:#262828;stroke:#262828;}.cls-2,.cls-3{stroke-miterlimit:10;}.cls-3,.cls-4{fill:none;stroke-width:.25px;}.cls-3,.cls-4,.cls-5{stroke:#000;}.cls-4,.cls-5{stroke-linecap:round;stroke-linejoin:round;}.cls-6{fill:#c5d7d9;}.cls-5{fill:#f2f2f2;stroke-width:.5px;}</style></defs><g><path class="cls-6" d="M122.08,58.51s24.7-34.83,51.93-29.13c27.23,5.7,30.4,40.53,30.4,41.8s37.37-.63,32.3,42.43c-5.07,43.07-38,45.6-38,45.6,0,0-2.53,51.93-67.13,32.93,0,0-25.02,30.72-61.75,14.25,0,0-34.83,17.1-50.03-18.37,0,0-22.17-10.13-10.13-34.2,0,0-22.17-38.63,13.3-50.03,0,0,3.8-30.4,36.1-30.4,0,0,19-38,63.02-14.88Z"/><path class="cls-5" d="M68.97,92.46c-7.69-4.18,29.68-59.28,56.28-7.35,0,0,8.23-33.57,37.37-40.53,29.13-6.97,32.3,31.03,20.27,44.97l-4.43,2.53s22.8-17.1,39.27,3.8c0,0,23.12,33.88-40.85,52.25l-1.58-1.58s10.13,7.6,10.13,15.83c0,0-17.1,31.67-58.9,11.4,0,0-17.73,33.57-60.17,14.57,0,0-31.51,23.43-36.02-12.35,0,0-23.51-2.22-8.94-22.48,0,0-18.98-27.23,11.09-37.37,0,0,1.57-41.17,36.5-23.69Z"/></g><path class="cls-4" d="M48.5,133c-4,9-4,38,10,33"/><path class="cls-4" d="M80.5,110s5-36,31-15"/><path class="cls-3" d="M166.5,118s3,34-24,36"/><path class="cls-4" d="M79.5,163s30.08,14.58,41.04,2.79"/><g><g><circle class="cls-2" cx="119.26" cy="138.74" r="11.74"/><path class="cls-1" d="M125.45,145.6c1.93,0,1.93-3,0-3s-1.93,3,0,3h0Z"/><path class="cls-1" d="M114.21,139.37c2.35,0,4.61-2.07,4.5-4.5s-1.98-4.5-4.5-4.5c-2.35,0-4.61,2.07-4.5,4.5s1.98,4.5,4.5,4.5h0Z"/></g><g><circle class="cls-2" cx="88.24" cy="138.74" r="11.74"/><path class="cls-1" d="M82.39,145.97c1.93,0,1.93-3,0-3s-1.93,3,0,3h0Z"/><path class="cls-1" d="M93.04,139.07c2.35,0,4.61-2.07,4.5-4.5s-1.98-4.5-4.5-4.5c-2.35,0-4.61,2.07-4.5,4.5s1.98,4.5,4.5,4.5h0Z"/></g></g></svg>