<?xml version="1.0" encoding="UTF-8"?>
<svg id="Layer_3" data-name="Layer 3" xmlns="http://www.w3.org/2000/svg" viewBox="0 0 240 240">
  <defs>
    <style>
      .cls-1 {
        fill: #1790bf;
      }

      .cls-1, .cls-2, .cls-3 {
        stroke: #000;
        stroke-miterlimit: 10;
      }

      .cls-4 {
        fill: #197ebc;
      }

      .cls-5 {
        fill: #f24405;
      }

      .cls-6 {
        fill: #19bca1;
      }

      .cls-2 {
        fill: #4a5b8c;
      }

      .cls-7 {
        fill: #f2f1f0;
      }

      .cls-8 {
        fill: #752a41;
      }

      .cls-3 {
        fill: none;
        stroke-linecap: round;
        stroke-width: 3px;
      }

      .cls-9 {
        fill: #053259;
      }
    </style>
  </defs>
  <path class="cls-3" d="M102.35,207.61s-.11,25.34,6.34,27.5"/>
  <path class="cls-3" d="M133.35,205.61s-2.11,27.34,4.34,29.5"/>
  <path class="cls-3" d="M61.5,189.69s-29.76,5.99-32.69,0"/>
  <path class="cls-3" d="M179.13,185.88s30.35,.06,32.06-6.39"/>
  <path class="cls-2" d="M177.69,200.11c-4,5-109,9-114,5S58.69,8.11,63.69,5.11s107,0,113,4,5,186,1,191Z"/>
  <path class="cls-1" d="M171.69,165.11c-4,4.75-97,6.9-100,5-4-4.75-5-154.1-1-156s96-.8,100,3,5,143.25,1,148Z"/>
  <path class="cls-4" d="M167.51,116.76s6.99,34.04,1.87,44.85c0,0-1.48,4.24-26.55,3.97,25.74-4.67,27.68-8.94,24.68-48.82Z"/>
  <path class="cls-6" d="M166.58,70.61s5.74-41.83-.96-51.13c0,0-29.62-3.65-39.2-.13,36.74-.85,42.23,30.47,40.15,51.26Z"/>
  <g>
    <path class="cls-9" d="M103.29,176.53h30.69s2.67,23.4-13.47,25.74c-19.11,2.77-17.22-25.74-17.22-25.74Z"/>
    <rect class="cls-7" x="110.93" y="177.55" width="4.35" height="3.34" rx="1.67" ry="1.67" transform="translate(-64.83 294.34) rotate(-90.65)"/>
    <rect class="cls-7" x="113.96" y="177.57" width="4.35" height="3.34" rx="1.67" ry="1.67" transform="translate(-61.79 297.39) rotate(-90.65)"/>
    <rect class="cls-7" x="117.98" y="177.49" width="4.35" height="3.34" rx="1.67" ry="1.67" transform="translate(-57.64 301.33) rotate(-90.65)"/>
    <rect class="cls-7" x="121.01" y="177.51" width="4.35" height="3.34" rx="1.67" ry="1.67" transform="translate(-54.6 304.38) rotate(-90.65)"/>
    <rect class="cls-7" x="124" y="177.49" width="4.35" height="3.34" rx="1.67" ry="1.67" transform="translate(-51.56 307.35) rotate(-90.65)"/>
    <rect class="cls-7" x="127.03" y="177.51" width="4.35" height="3.34" rx="1.67" ry="1.67" transform="translate(-48.52 310.4) rotate(-90.65)"/>
    <rect class="cls-7" x="104.95" y="177.49" width="4.35" height="3.34" rx="1.67" ry="1.67" transform="translate(-70.82 288.3) rotate(-90.65)"/>
    <rect class="cls-7" x="107.97" y="177.51" width="4.35" height="3.34" rx="1.67" ry="1.67" transform="translate(-67.78 291.34) rotate(-90.65)"/>
    <path class="cls-8" d="M117.31,203.79c-3.08,0-5.79-.8-8.1-2.39-9.39-6.49-8.33-24.19-8.28-24.94,.05-.71,.79-1.27,1.7-1.27h30.69c.88,0,1.61,.53,1.69,1.22,.11,1,2.61,24.64-14.85,27.17-.98,.14-1.93,.21-2.85,.21Zm-13.03-25.93c-.06,4.07,.32,16.8,7.17,21.53,2.2,1.52,4.84,2.03,8.09,1.56,12.44-1.8,12.43-18.41,12.18-23.09h-27.43Z"/>
  </g>
  <g>
    <path d="M148.3,127.61l-26.67,7.15c-.2,.45-.38,.9-.54,1.37-3.19,9.25,1.72,19.33,10.97,22.51,9.25,3.19,19.33-1.72,22.51-10.97,2.59-7.52-.17-15.59-6.27-20.06Zm-13.4,20.94c-1.04,3.02-4.28,4.4-7.24,3.53-2.95-.87-4.5-4.42-3.53-7.24,1.04-3.02,4.28-4.4,7.24-3.53,2.95,.87,4.5,4.42,3.53,7.24Zm11.37-10.4c-.8,2.31-4.38,1.07-3.59-1.24,.8-2.31,4.38-1.07,3.59,1.24Z"/>
    <path class="cls-5" d="M142.68,136.91c.8-2.31,4.38-1.07,3.59,1.24-.8,2.31-4.38,1.07-3.59-1.24Z"/>
    <path class="cls-5" d="M127.66,152.08c-2.95-.87-4.5-4.42-3.53-7.24,1.04-3.02,4.28-4.4,7.24-3.53,2.95,.87,4.5,4.42,3.53,7.24-1.04,3.02-4.28,4.4-7.24,3.53Z"/>
  </g>
  <g>
    <path d="M82.2,147.67c3.19,9.25,13.27,14.16,22.51,10.97s14.16-13.27,10.97-22.51c-.16-.47-.34-.92-.54-1.37l-26.67-7.15c-6.1,4.47-8.86,12.54-6.27,20.06Zm23.2-6.35c2.96-.87,6.2,.51,7.24,3.53,.97,2.81-.57,6.36-3.53,7.24-2.96,.87-6.2-.51-7.24-3.53-.97-2.81,.57-6.36,3.53-7.24Zm-11.3-4.4c.8,2.31-2.79,3.55-3.59,1.24-.8-2.31,2.79-3.55,3.59-1.24Z"/>
    <path class="cls-5" d="M94.09,136.91c-.8-2.31-4.38-1.07-3.59,1.24,.8,2.31,4.38,1.07,3.59-1.24Z"/>
    <path class="cls-5" d="M109.1,152.08c2.95-.87,4.5-4.42,3.53-7.24-1.04-3.02-4.28-4.4-7.24-3.53-2.95,.87-4.5,4.42-3.53,7.24,1.04,3.02,4.28,4.4,7.24,3.53Z"/>
  </g>
</svg>