<?xml version="1.0" encoding="UTF-8"?>
<svg id="Layer_3" data-name="Layer 3" xmlns="http://www.w3.org/2000/svg" viewBox="0 0 240 240">
  <defs>
    <style>
      .cls-1 {
        fill: #1790bf;
        stroke-width: 2px;
      }

      .cls-1, .cls-2, .cls-3, .cls-4 {
        stroke: #000;
        stroke-miterlimit: 10;
      }

      .cls-2 {
        fill: #401801;
      }

      .cls-2, .cls-3, .cls-4 {
        stroke-width: 3px;
      }

      .cls-5 {
        fill: #6d2907;
      }

      .cls-6 {
        fill: #f24405;
      }

      .cls-3, .cls-4 {
        fill: none;
      }

      .cls-7 {
        fill: #19bca1;
      }

      .cls-4 {
        stroke-linecap: round;
      }
    </style>
  </defs>
  <path class="cls-4" d="M119.97,199.42s.89,33.34,7.34,35.84"/>
  <path class="cls-4" d="M108.36,199.42s-.6,33.34-7.05,35.84"/>
  <path class="cls-2" d="M203.31,195.26c-27.11,8.13-158,5-166,0s-18-99,0-124c14.9-20.69,151-10,166,0s10,121,0,124Z"/>
  <g>
    <path class="cls-1" d="M160.11,89.2c3.51,3.86,4.21,68.51,0,72.07s-93.34,3.06-99.57,0-10.33-63.24,0-71.8c10.33-8.56,96.05-4.14,99.57-.28Z"/>
    <path class="cls-7" d="M64.91,115.7s-5.52-6.62,2.98-19.51c4.24-6.42,44.28-2.57,54.44,1.84,3.41-.74-23.72-.98-41.96,6.62-13.25,5.52-15.46,11.04-15.46,11.04Z"/>
    <path class="cls-5" d="M37.81,104.76s-.42-15.69,8.08-28.57c4.24-6.42,48.76-7.84,58.92-3.43,3.41-.74-29.76,.4-48,8-13.25,5.52-19,24-19,24Z"/>
  </g>
  <path class="cls-3" d="M157.21,62.25s9.62-37.97,34.1-46.99"/>
  <path class="cls-3" d="M155.29,63.34s-2.93-36.25-20.98-55.08"/>
  <path d="M132.36,9.24c3.86,0,3.87-6,0-6s-3.87,6,0,6h0Z"/>
  <path d="M192.36,18.24c3.86,0,3.87-6,0-6s-3.87,6,0,6h0Z"/>
  <path d="M193.43,102l-1.62-3.24-1.59,3.17c-1.73,.64-3.11,2.31-3.02,4.21,.11,2.44,1.98,4.5,4.5,4.5,2.35,0,4.61-2.07,4.5-4.5-.08-1.84-1.16-3.46-2.77-4.15Z"/>
  <path d="M193.43,127l-1.62-3.24-1.59,3.17c-1.73,.64-3.11,2.31-3.02,4.21,.11,2.44,1.98,4.5,4.5,4.5,2.35,0,4.61-2.07,4.5-4.5-.08-1.84-1.16-3.46-2.77-4.15Z"/>
  <path d="M193.43,148l-1.62-3.24-1.59,3.17c-1.73,.64-3.11,2.31-3.02,4.21,.11,2.44,1.98,4.5,4.5,4.5,2.35,0,4.61-2.07,4.5-4.5-.08-1.84-1.16-3.46-2.77-4.15Z"/>
  <path d="M105.54,187.87c6.76,0,9.52,4.83,10.03,7.39,.14,.68-.3,1.34-.98,1.48-.68,.14-1.33-.3-1.47-.97-.05-.23-1.23-5.39-7.58-5.39s-7.81,5.1-7.87,5.32c-.17,.67-.86,1.07-1.52,.9-.67-.17-1.07-.85-.91-1.51,.62-2.49,3.58-7.21,10.3-7.21Z"/>
  <g>
    <path d="M135.5,162.92l-24.04,6.44c-.18,.4-.34,.81-.49,1.23-2.87,8.33,1.55,17.42,9.88,20.29,8.33,2.87,17.42-1.55,20.29-9.88,2.34-6.78-.15-14.05-5.65-18.08Zm-12.08,18.87c-.94,2.72-3.85,3.97-6.52,3.18-2.66-.79-4.05-3.99-3.18-6.52,.94-2.72,3.85-3.97,6.52-3.18,2.66,.79,4.05,3.99,3.18,6.52Zm10.24-9.37c-.72,2.08-3.95,.97-3.23-1.11,.72-2.08,3.95-.97,3.23,1.11Z"/>
    <path class="cls-6" d="M130.44,171.31c.72-2.08,3.95-.97,3.23,1.11-.72,2.08-3.95,.97-3.23-1.11Z"/>
    <path class="cls-6" d="M116.9,184.97c-2.66-.79-4.05-3.99-3.18-6.52,.94-2.72,3.85-3.97,6.52-3.18,2.66,.79,4.05,3.99,3.18,6.52-.94,2.72-3.85,3.97-6.52,3.18Z"/>
  </g>
  <g>
    <path d="M68.72,181c2.87,8.33,11.96,12.76,20.29,9.88,8.33-2.87,12.76-11.96,9.88-20.29-.15-.42-.31-.83-.49-1.23l-24.04-6.44c-5.5,4.03-7.99,11.3-5.65,18.08Zm20.9-5.72c2.67-.79,5.58,.46,6.52,3.18,.87,2.54-.52,5.74-3.18,6.52-2.67,.79-5.58-.46-6.52-3.18-.87-2.54,.52-5.74,3.18-6.52Zm-10.19-3.97c.72,2.08-2.51,3.2-3.23,1.11-.72-2.08,2.51-3.2,3.23-1.11Z"/>
    <path class="cls-6" d="M79.44,171.31c-.72-2.08-3.95-.97-3.23,1.11,.72,2.08,3.95,.97,3.23-1.11Z"/>
    <path class="cls-6" d="M92.97,184.97c2.66-.79,4.05-3.99,3.18-6.52-.94-2.72-3.85-3.97-6.52-3.18-2.66,.79-4.05,3.99-3.18,6.52,.94,2.72,3.85,3.97,6.52,3.18Z"/>
  </g>
</svg>