<?xml version="1.0" encoding="UTF-8"?>
<svg id="Layer_3" data-name="Layer 3" xmlns="http://www.w3.org/2000/svg" viewBox="0 0 240 240">
  <defs>
    <style>
      .cls-1, .cls-2 {
        fill: #4a5b8c;
      }

      .cls-3 {
        fill: #ccc;
        stroke: #666;
      }

      .cls-3, .cls-4, .cls-2, .cls-5 {
        stroke-linecap: round;
        stroke-miterlimit: 10;
      }

      .cls-3, .cls-5 {
        stroke-width: 3px;
      }

      .cls-6 {
        fill: #f24405;
      }

      .cls-4 {
        fill: #fff;
      }

      .cls-4, .cls-2 {
        stroke: #364044;
      }

      .cls-7 {
        fill: #d91a4d;
      }

      .cls-5 {
        fill: none;
        stroke: #000;
      }

      .cls-8 {
        fill: #bf5a75;
      }
    </style>
  </defs>
  <path class="cls-5" d="M66.78,188.48s-23.42,2.68-25.28-3.77"/>
  <path class="cls-5" d="M171.94,187.48s24.85,1.68,26.56-4.77"/>
  <path class="cls-5" d="M132.16,202.87s-2.11,31.34,4.34,33.84"/>
  <path class="cls-5" d="M102.16,203.87s-2.11,30.34,4.34,32.84"/>
  <g>
    <path class="cls-3" d="M160.58,201.71H78.55c-5.55,0-10.05-4.5-10.05-10.05L53.5,18.71H183.63l-13,172.95c0,5.55-4.5,10.05-10.05,10.05Z"/>
    <rect class="cls-3" x="43.5" y="8.71" width="149" height="10" rx="2.28" ry="2.28"/>
    <line class="cls-3" x1="118.5" y1="18.71" x2="118.5" y2="201.71"/>
    <line class="cls-3" x1="94.5" y1="19.21" x2="102.5" y2="201.71"/>
    <line class="cls-3" x1="143.5" y1="19.21" x2="135.5" y2="201.71"/>
    <line class="cls-3" x1="70.5" y1="18.71" x2="83.5" y2="201.71"/>
    <line class="cls-3" x1="166.5" y1="18.71" x2="153.5" y2="201.71"/>
    <line class="cls-3" x1="55.5" y1="45.71" x2="182" y2="45.71"/>
    <line class="cls-3" x1="59" y1="72.71" x2="180" y2="72.71"/>
    <line class="cls-3" x1="60.5" y1="100.71" x2="177.5" y2="100.71"/>
    <line class="cls-3" x1="62.5" y1="126.71" x2="175.5" y2="126.71"/>
    <line class="cls-3" x1="65.5" y1="152.71" x2="174.5" y2="152.71"/>
    <line class="cls-3" x1="67.5" y1="177.71" x2="171.5" y2="177.71"/>
    <g>
      <path class="cls-4" d="M151.22,46.07c2.4-.4,6.02-3.89,14.09-3.32,1.24,.09,3.25-.06,4.45-.4,6.4-1.8,6.7-4.73,6.93-5.88,.74-3.69-2.22-7.39-2.95-10.71s-.74-4.8-.37-8.49c.37-3.69,.75-11.82,.75-11.82,.05-2.06-5.14-2.97-9.33-3.15l-8.77,2.63c-.41,.12-.34,.72,.09,.75,.95,.08,1.38,1.03,2.38,1.03,2.4,0,2.99-1.35,3-1l-.31,20.79s1.48,6.28-7.02,8.49l-11.81,2.73-2.59,.6s-3.09,1.39-4.43,2.95c-2.17,2.53-1.73,6.51,5.91,7.02,5.54,.37,9.97-2.22,9.97-2.22Z"/>
      <path class="cls-2" d="M140.54,38.17s5.79,9.92,3.75,10.04c-3.5,.2-8.71,.09-10.13-3.24-1.41-3.33,6.37-6.8,6.37-6.8Z"/>
      <path class="cls-2" d="M166.73,42.37s7.12-15.31,8.12-13.29c1.48,2.95,2.89,5.45,.83,9.4-2.06,3.95-8.95,3.89-8.95,3.89Z"/>
    </g>
  </g>
  <g>
    <g>
      <path class="cls-1" d="M121.97,186.25c-4.62,0-10.49-4.68-14.94-11.93-4.47-7.28-8.16-18.73-4.16-27.45,1.91,.17,7.62,.63,13.7,.63,10.37,0,16.6-1.26,18.89-3.84,.52,7.85-.8,34.41-9.54,41.2-1.17,.91-2.51,1.37-3.97,1.37Z"/>
      <path d="M134.61,145.6c.2,9.33-1.69,32.64-9.26,38.52-1.02,.79-2.12,1.17-3.38,1.17-4.3,0-9.84-4.5-14.12-11.47-4.24-6.91-7.78-17.64-4.37-25.93,2.37,.2,7.53,.57,13.1,.57,8.95,0,14.86-.93,18.03-2.87m1.24-4.59c-.13,0-.27,.26-.42,.82-1.03,3.83-10.36,4.72-18.85,4.72-7.46,0-14.27-.69-14.27-.69-7.84,15.46,7.94,41.34,19.67,41.34,1.62,0,3.16-.49,4.55-1.58,10.58-8.23,10.86-44.62,9.33-44.62h0Z"/>
    </g>
    <g>
      <g>
        <path class="cls-8" d="M107.88,147.92s.98,.34,3.95,.44c.94,.03,.04,0,4.94,.05,6.59,.07,12.1-1.5,12.1-1.5,0,0-1.95,23.83-6.24,26.21s-13.46-5.94-14.76-25.2Z"/>
        <path d="M121.05,173.82c-.84,0-1.76-.26-2.71-.77-4.34-2.36-9.77-10.36-10.76-25.11l-.03-.45,.43,.15s1,.33,3.87,.42c.47,.02,.47,.02,.99,.02,.51,0,1.51,0,3.95,.04,6.46,.06,11.96-1.47,12.01-1.48l.42-.12-.04,.43c-.08,.98-2.02,24.02-6.39,26.45-.52,.29-1.11,.43-1.74,.43Zm-12.84-25.51c.99,13.34,5.92,21.76,10.42,24.21,1.46,.79,2.83,.91,3.86,.34,3.79-2.11,5.76-22.35,6.05-25.55-1.41,.36-6.23,1.45-11.77,1.4-2.43-.03-3.44-.03-3.95-.04-.52,0-.53,0-1-.02-1.96-.07-3.07-.23-3.62-.35Z"/>
      </g>
      <g>
        <line class="cls-7" x1="119.89" y1="164.32" x2="118.26" y2="148.28"/>
        <rect x="118.78" y="148.23" width=".6" height="16.12" transform="translate(-15.2 12.85) rotate(-5.81)"/>
      </g>
    </g>
  </g>
  <g>
    <path d="M149.23,92.21l-24.94,6.68c-.18,.42-.35,.84-.51,1.28-2.98,8.64,1.61,18.07,10.25,21.05,8.64,2.98,18.07-1.61,21.05-10.25,2.42-7.03-.16-14.58-5.86-18.76Zm-12.53,19.58c-.97,2.82-4,4.11-6.77,3.3-2.76-.82-4.2-4.13-3.3-6.77,.97-2.82,4-4.11,6.77-3.3,2.76,.82,4.2,4.13,3.3,6.77Zm10.63-9.73c-.75,2.16-4.1,1-3.35-1.16,.75-2.16,4.1-1,3.35,1.16Z"/>
    <path class="cls-6" d="M143.97,100.91c.75-2.16,4.1-1,3.35,1.16-.75,2.16-4.1,1-3.35-1.16Z"/>
    <path class="cls-6" d="M129.93,115.09c-2.76-.82-4.2-4.13-3.3-6.77,.97-2.82,4-4.11,6.77-3.3,2.76,.82,4.2,4.13,3.3,6.77-.97,2.82-4,4.11-6.77,3.3Z"/>
  </g>
  <g>
    <path d="M79.94,110.96c2.98,8.64,12.41,13.24,21.05,10.25s13.24-12.41,10.25-21.05c-.15-.44-.32-.86-.51-1.28l-24.94-6.68c-5.7,4.18-8.29,11.72-5.86,18.76Zm21.69-5.94c2.77-.82,5.79,.48,6.77,3.3,.91,2.63-.54,5.95-3.3,6.77-2.77,.82-5.79-.48-6.77-3.3-.91-2.63,.54-5.95,3.3-6.77Zm-10.57-4.12c.74,2.16-2.61,3.32-3.35,1.16-.74-2.16,2.61-3.32,3.35-1.16Z"/>
    <path class="cls-6" d="M91.06,100.91c-.75-2.16-4.1-1-3.35,1.16,.75,2.16,4.1,1,3.35-1.16Z"/>
    <path class="cls-6" d="M105.1,115.09c2.76-.82,4.2-4.13,3.3-6.77-.97-2.82-4-4.11-6.77-3.3-2.76,.82-4.2,4.13-3.3,6.77,.97,2.82,4,4.11,6.77,3.3Z"/>
  </g>
</svg>